<?xml version="1.0" standalone="no"?>
<!DOCTYPE svg PUBLIC "-//W3C//DTD SVG 20010904//EN"
 "http://www.w3.org/TR/2001/REC-SVG-20010904/DTD/svg10.dtd">
<svg version="1.0" xmlns="http://www.w3.org/2000/svg"
 width="360.000000pt" height="360.000000pt" viewBox="0 0 360.000000 360.000000"
 preserveAspectRatio="xMidYMid meet">

<g transform="translate(0.000000,360.000000) scale(0.100000,-0.100000)"
fill="#000000" stroke="none">
<path d="M0 1800 l0 -1800 1800 0 1800 0 0 1800 0 1800 -1800 0 -1800 0 0
-1800z m2559 1100 c65 -158 196 -286 354 -345 78 -29 74 -58 -11 -90 -139 -53
-257 -164 -329 -312 -52 -107 -74 -119 -99 -55 -64 167 -193 303 -347 364 -28
12 -58 26 -65 33 -22 20 -2 43 50 61 69 22 188 105 243 167 43 49 125 194 125
222 0 15 18 25 39 22 8 -1 26 -31 40 -67z m-879 -50 c92 -47 125 -172 67 -258
-31 -47 -59 -64 -155 -93 -197 -61 -355 -194 -446 -376 -60 -119 -71 -172 -71
-328 1 -125 4 -149 28 -220 38 -115 91 -199 182 -290 91 -91 175 -144 290
-182 72 -25 94 -27 225 -27 131 0 153 2 225 27 117 39 199 91 295 187 98 97
158 200 190 324 30 118 52 151 123 181 75 31 150 13 204 -48 53 -61 59 -101
29 -220 -75 -298 -283 -559 -557 -702 -476 -247 -1059 -117 -1384 309 -282
370 -299 877 -43 1268 112 170 265 301 460 393 160 75 265 92 338 55z"/>
</g>
</svg>
